<?xml version="1.0" encoding="iso-8859-1"?>
<!-- Uploaded to: SVG Repo, www.svgrepo.com, Generator: SVG Repo Mixer Tools -->
<svg fill="#000000" height="800px" width="800px" version="1.1" id="Layer_1" xmlns="http://www.w3.org/2000/svg" xmlns:xlink="http://www.w3.org/1999/xlink" 
	 viewBox="0 0 512.001 512.001" xml:space="preserve">
<g>
	<g>
		<path d="M428.229,190.018h-16.934V168.04c0-6.965-5.646-12.611-12.611-12.611H96.383c-6.965,0-12.611,5.646-12.611,12.611v104.13
			c0,41.563,15.491,79.5,41.005,108.376h245.512c6.304-7.136,12-14.823,16.998-22.984h40.941c46.192,0,83.773-37.58,83.773-83.773
			C512.001,227.598,474.421,190.018,428.229,190.018z M428.227,319.729h-23.958c4.561-15.052,7.024-31.018,7.024-47.561v-44.318
			h16.934c25.331,0,45.94,20.609,45.94,45.94C474.167,299.121,453.559,319.729,428.227,319.729z"/>
	</g>
</g>
<g>
	<g>
		<path d="M485.448,415.922c-2.748-1.556-5.917-2.455-9.3-2.455H18.916v0c-3.383,0-6.553,0.899-9.3,2.455
			C3.879,419.171,0,425.32,0,432.383C0,442.83,8.469,451.3,18.916,451.3h51.712l6.595,12.43
			c12.775,24.077,37.802,39.129,65.058,39.129h210.5c27.256,0,52.283-15.052,65.058-39.129l6.595-12.43h51.712
			c10.447,0,18.916-8.469,18.916-18.916C495.064,425.32,491.185,419.171,485.448,415.922z"/>
	</g>
</g>
<g>
	<g>
		<path d="M325.304,15.507c-30.064-12.523-66.005-6.569-90.463,17.888c-24.457,24.457-30.411,60.398-17.888,90.463
			c30.064,12.523,66.005,6.57,90.463-17.888C331.873,81.512,337.827,45.571,325.304,15.507z"/>
	</g>
</g>
</svg>